<svg xmlns="http://www.w3.org/2000/svg" viewBox="0 0 850 450" width="850" height="450">
  <defs>
    <linearGradient id="primaryGrad" x1="0%" y1="0%" x2="100%" y2="100%">
      <stop offset="0%" stop-color="#4F8CFF" />
      <stop offset="100%" stop-color="#7B61FF" />
    </linearGradient>
    <linearGradient id="accentGrad" x1="0%" y1="0%" x2="100%" y2="100%">
      <stop offset="0%" stop-color="#00E5FF" />
      <stop offset="100%" stop-color="#4F8CFF" />
    </linearGradient>
    <filter id="glow" x="-20%" y="-20%" width="140%" height="140%">
      <feGaussianBlur stdDeviation="5" result="blur" />
      <feComposite in="SourceGraphic" in2="blur" operator="over" />
    </filter>
  </defs>
  <style>
    @import url('https://fonts.googleapis.com/css2?family=Inter:wght@400;500;600;700&amp;family=JetBrains+Mono:wght@400;700&amp;family=Space+Grotesk:wght@500;700&amp;display=swap');
    
    * {
      font-family: 'Inter', -apple-system, BlinkMacSystemFont, 'Segoe UI', Roboto, Helvetica, Arial, sans-serif;
    }
    .mono {
      font-family: 'JetBrains Mono', monospace;
    }
    .grotesk {
      font-family: 'Space Grotesk', sans-serif;
    }
    
  .term-bg {
    fill: #0D1117;
    stroke: #30363D;
    stroke-width: 1;
    rx: 8;
  }
  .term-header {
    fill: #161B22;
  }
  .ascii {
    font-size: 11px;
    fill: #4F8CFF;
    font-family: 'JetBrains Mono', monospace;
    white-space: pre;
  }
  .info-key {
    fill: #00E5FF;
    font-weight: bold;
    font-size: 13px;
  }
  .info-val {
    fill: #FFFFFF;
    font-size: 13px;
  }
  .info-title {
    fill: #4F8CFF;
    font-weight: bold;
    font-size: 14px;
  }
  .info-divider {
    fill: #8B949E;
    font-size: 13px;
  }
  .mono {
    font-family: 'JetBrains Mono', monospace;
  }

  </style>
  <rect width="100%" height="100%" fill="#0B0F19" rx="12" />
  
  <g transform="translate(10, 10)">
    <rect class="term-bg" x="0" y="0" width="830" height="430" />
    <path class="term-header" d="M 0 8 a 8 8 0 0 1 8 -8 h 814 a 8 8 0 0 1 8 8 v 22 h -830 z" />
    <circle cx="20" cy="15" r="6" fill="#FF5C7A" />
    <circle cx="40" cy="15" r="6" fill="#F5B841" />
    <circle cx="60" cy="15" r="6" fill="#3DDC97" />
    <text class="mono" x="415" y="20" fill="#8B949E" font-size="12" text-anchor="middle">UshnishG / README.md</text>
<g transform="translate(30, 80)"><text class="ascii" x="0" y="0">             .,-:;//;:=,</text><text class="ascii" x="0" y="15">         . :H@@@MM@M#H/.,+%;,</text><text class="ascii" x="0" y="30">      ,/X+ +M@@M@MM%=,-%HMMM@X/,</text><text class="ascii" x="0" y="45">     -+@MM; $M@@MH+-,;XMMMM@MMMM@+-</text><text class="ascii" x="0" y="60">    ;@M@@M- XM@X;. -+XXXXXHHH@M@M#@/.</text><text class="ascii" x="0" y="75">  ,%MM@@MH ,@%=            .---=-=:=,.</text><text class="ascii" x="0" y="90">  -@#@@@MX .,              -%HX$$%%%+;</text><text class="ascii" x="0" y="105"> =-./@M@M$                  .;@MMMM@MM:</text><text class="ascii" x="0" y="120"> X@/ -$MM/                    .+MM@@@M$</text><text class="ascii" x="0" y="135">,@M@H: :@:                    . =X#@@@@-</text><text class="ascii" x="0" y="150">,@@@MMX, .                    /H- ;@M@M=</text><text class="ascii" x="0" y="165">.H@@@@M@+,                    %MM+..%#$.</text><text class="ascii" x="0" y="180"> /MMMM@MMH/.                  XM@MH; =;</text><text class="ascii" x="0" y="195">  /%+%$XHH@$=              , .H@@@@MX,</text><text class="ascii" x="0" y="210">   .=--------.           -%H.,@@@@@MX,</text><text class="ascii" x="0" y="225">   .%MM@@@HHHXX$$$%+- .:$MMX =M@@MM%.</text><text class="ascii" x="0" y="240">     =XMMM@MM@MM#H;,-+HMM@M+ /MMMX=</text><text class="ascii" x="0" y="255">       =%@M@M#@$-.=$@MM@@@M; %M%=</text><text class="ascii" x="0" y="270">         ,:+$+-,/H#MMMMMMM@- -,</text><text class="ascii" x="0" y="285">               =++%%%%+/:-.</text></g><text class="mono info-title" x="350" y="70">ushnish</text><text class="mono info-divider" x="406" y="70">@ai-core</text><text class="mono info-divider" x="350" y="90">-------------------------------------------------</text><text class="mono info-key" x="350" y="110">. OS:</text><text class="mono info-val" x="520" y="110">Windows 11, Linux, macOS</text><text class="mono info-key" x="350" y="130">. Role:</text><text class="mono info-val" x="520" y="130">AI Engineer & Researcher</text><text class="mono info-key" x="350" y="150">. University:</text><text class="mono info-val" x="520" y="150">SRM Institute of Science and Technology</text><text class="mono info-key" x="350" y="170">. IDE:</text><text class="mono info-val" x="520" y="170">VS Code, Cursor, Neovim</text><text class="mono info-key" x="350" y="200">. Languages.Code:</text><text class="mono info-val" x="520" y="200">Python, TypeScript, Rust, Go, C/C++</text><text class="mono info-key" x="350" y="220">. Languages.Speak:</text><text class="mono info-val" x="520" y="220">English, Bengali, Hindi</text><text class="mono info-key" x="350" y="240">. Focus:</text><text class="mono info-val" x="520" y="240">LLMs, Edge AI, Backend, Open Source</text><text class="mono info-title" x="350" y="270">- Contact</text><text class="mono info-key" x="350" y="290">. Email:</text><text class="mono info-val" x="520" y="290">contact@ushnish.com</text><text class="mono info-key" x="350" y="310">. LinkedIn:</text><text class="mono info-val" x="520" y="310">ushnishghosal</text><text class="mono info-key" x="350" y="330">. GitHub:</text><text class="mono info-val" x="520" y="330">UshnishG</text><text class="mono info-title" x="350" y="360">- GitHub Stats</text><text class="mono info-key" x="350" y="380">. Repos:</text><text class="mono info-val" x="520" y="380">45 (Contributed: 80+) | Stars: 124</text><text class="mono info-key" x="350" y="400">. Commits:</text><text class="mono info-val" x="520" y="400">1,042 | Followers: 50+</text>
  <rect x="350" y="440" width="20" height="20" fill="#0B0F19" />
  <rect x="375" y="440" width="20" height="20" fill="#FF5C7A" />
  <rect x="400" y="440" width="20" height="20" fill="#3DDC97" />
  <rect x="425" y="440" width="20" height="20" fill="#F5B841" />
  <rect x="450" y="440" width="20" height="20" fill="#4F8CFF" />
  <rect x="475" y="440" width="20" height="20" fill="#7B61FF" />
  <rect x="500" y="440" width="20" height="20" fill="#00E5FF" />
</g>
</svg>